<svg width="112" height="17" viewBox="0 0 112 17" fill="none" xmlns="http://www.w3.org/2000/svg">
<path d="M0.96 16V0.159999H7.344C8.32 0.159999 9.184 0.247999 9.936 0.423999C10.704 0.599999 11.352 0.863999 11.88 1.216C12.424 1.552 12.832 1.976 13.104 2.488C13.392 3 13.536 3.6 13.536 4.288C13.536 4.928 13.4 5.504 13.128 6.016C12.872 6.528 12.448 6.944 11.856 7.264C11.28 7.568 10.52 7.76 9.576 7.84V8.056C11.192 8.136 12.36 8.512 13.08 9.184C13.816 9.856 14.184 10.744 14.184 11.848C14.184 12.776 13.944 13.544 13.464 14.152C12.984 14.76 12.28 15.224 11.352 15.544C10.44 15.848 9.304 16 7.944 16H0.96ZM4.848 12.88H7.776C8.592 12.88 9.224 12.736 9.672 12.448C10.12 12.144 10.344 11.72 10.344 11.176C10.344 10.568 10.088 10.12 9.576 9.832C9.08 9.528 8.328 9.376 7.32 9.376H4.848V12.88ZM4.848 6.736H6.936C7.848 6.736 8.544 6.584 9.024 6.28C9.504 5.976 9.744 5.528 9.744 4.936C9.744 4.376 9.528 3.96 9.096 3.688C8.664 3.4 8.016 3.256 7.152 3.256H4.848V6.736ZM19.4016 16.336C18.0256 16.336 17.0016 15.856 16.3296 14.896C15.6736 13.936 15.3456 12.464 15.3456 10.48V3.328H19.2336V10.432C19.2336 11.36 19.3616 12.008 19.6176 12.376C19.8896 12.744 20.2736 12.928 20.7696 12.928C21.1216 12.928 21.4416 12.84 21.7296 12.664C22.0336 12.472 22.2976 12.192 22.5216 11.824C22.7456 11.44 22.9136 10.952 23.0256 10.36C23.1536 9.768 23.2176 9.056 23.2176 8.224V3.328H27.1056V10.288V16H23.7936V11.056H23.6256C23.5296 12.288 23.3136 13.296 22.9776 14.08C22.6416 14.848 22.1776 15.416 21.5856 15.784C20.9936 16.152 20.2656 16.336 19.4016 16.336ZM28.4409 16V12.736L34.4649 6.592V6.448H28.5609V3.328H39.0009V6.616L32.9769 12.784V12.88H39.0729V16H28.4409Z" fill="#1E0A3C"/>
<path d="M40.5225 16V0.159999H44.4105V16H40.5225ZM43.4265 16V12.76H51.8505V16H43.4265ZM43.4265 9.472V6.568H50.7465V9.472H43.4265ZM43.4265 3.4V0.159999H51.8505V3.4H43.4265ZM56.3411 16L52.5251 3.328H56.6531L58.8371 12.784H58.9331L61.2131 3.328H65.1011L61.2851 16H56.3411ZM71.3411 16.336C70.1411 16.336 69.1331 16.168 68.3171 15.832C67.5171 15.48 66.8691 15.008 66.3731 14.416C65.8771 13.808 65.5171 13.12 65.2931 12.352C65.0851 11.584 64.9811 10.776 64.9811 9.928C64.9811 9.016 65.0931 8.144 65.3171 7.312C65.5571 6.48 65.9171 5.744 66.3971 5.104C66.8931 4.448 67.5251 3.936 68.2931 3.568C69.0771 3.184 70.0131 2.992 71.1011 2.992C72.1891 2.992 73.1171 3.184 73.8851 3.568C74.6691 3.936 75.2931 4.456 75.7571 5.128C76.2211 5.8 76.5171 6.576 76.6451 7.456C76.7891 8.336 76.7731 9.288 76.5971 10.312L67.4051 10.456V8.344L73.6211 8.224L73.1171 9.448C73.2131 8.712 73.1971 8.096 73.0691 7.6C72.9571 7.088 72.7411 6.704 72.4211 6.448C72.1011 6.176 71.6611 6.04 71.1011 6.04C70.5091 6.04 70.0371 6.192 69.6851 6.496C69.3331 6.8 69.0851 7.232 68.9411 7.792C68.7971 8.336 68.7251 8.984 68.7251 9.736C68.7251 11.032 68.9411 11.976 69.3731 12.568C69.8051 13.16 70.4691 13.456 71.3651 13.456C71.7491 13.456 72.0691 13.408 72.3251 13.312C72.5811 13.216 72.7891 13.08 72.9491 12.904C73.1091 12.712 73.2211 12.488 73.2851 12.232C73.3491 11.96 73.3731 11.656 73.3571 11.32L76.9091 11.512C76.9571 12.04 76.9011 12.584 76.7411 13.144C76.5971 13.704 76.3171 14.224 75.9011 14.704C75.4851 15.184 74.9011 15.576 74.1491 15.88C73.4131 16.184 72.4771 16.336 71.3411 16.336ZM78.2546 16V8.824V3.328H81.5426V8.488H81.7346C81.8306 7.24 82.0386 6.216 82.3586 5.416C82.6786 4.6 83.1346 3.992 83.7266 3.592C84.3186 3.192 85.0706 2.992 85.9826 2.992C87.3586 2.992 88.3906 3.448 89.0786 4.36C89.7826 5.272 90.1346 6.632 90.1346 8.44V16H86.2466V8.944C86.2466 8.08 86.1106 7.432 85.8386 7C85.5826 6.568 85.1666 6.352 84.5906 6.352C84.1106 6.352 83.6866 6.52 83.3186 6.856C82.9506 7.192 82.6626 7.736 82.4546 8.488C82.2466 9.24 82.1426 10.248 82.1426 11.512V16H78.2546ZM96.7952 16.288C95.3072 16.288 94.1952 15.912 93.4592 15.16C92.7392 14.392 92.3792 13.208 92.3792 11.608V6.352H90.9872V3.904H91.0592C92.0512 3.776 92.7552 3.448 93.1712 2.92C93.5872 2.376 93.8432 1.56 93.9392 0.472V0.423999H96.2192V3.328H99.1232V6.448H96.2192V11.248C96.2192 11.856 96.3632 12.288 96.6512 12.544C96.9552 12.8 97.3232 12.928 97.7552 12.928C97.9792 12.928 98.2112 12.896 98.4512 12.832C98.6912 12.768 98.9152 12.68 99.1232 12.568V15.952C98.6272 16.096 98.1872 16.184 97.8032 16.216C97.4192 16.264 97.0832 16.288 96.7952 16.288ZM106.041 16.336C105.193 16.336 104.401 16.248 103.665 16.072C102.945 15.912 102.313 15.648 101.769 15.28C101.241 14.912 100.833 14.424 100.545 13.816C100.273 13.192 100.161 12.44 100.209 11.56L103.593 11.272C103.625 11.8 103.745 12.24 103.953 12.592C104.161 12.928 104.449 13.176 104.817 13.336C105.185 13.496 105.633 13.576 106.161 13.576C106.657 13.576 107.081 13.496 107.433 13.336C107.801 13.16 107.985 12.872 107.985 12.472C107.985 12.264 107.921 12.096 107.793 11.968C107.665 11.824 107.425 11.696 107.073 11.584C106.737 11.456 106.241 11.312 105.585 11.152C104.769 10.944 104.033 10.736 103.377 10.528C102.721 10.32 102.161 10.072 101.697 9.784C101.233 9.496 100.881 9.144 100.641 8.728C100.401 8.296 100.281 7.768 100.281 7.144C100.281 6.264 100.513 5.52 100.977 4.912C101.457 4.288 102.113 3.816 102.945 3.496C103.777 3.16 104.737 2.992 105.825 2.992C106.801 2.992 107.713 3.144 108.561 3.448C109.409 3.752 110.073 4.248 110.553 4.936C111.049 5.624 111.233 6.536 111.105 7.672L107.793 7.984C107.841 7.52 107.777 7.128 107.601 6.808C107.425 6.472 107.169 6.224 106.833 6.064C106.497 5.888 106.089 5.8 105.609 5.8C105.065 5.8 104.641 5.904 104.337 6.112C104.049 6.304 103.905 6.552 103.905 6.856C103.905 7.096 103.993 7.304 104.169 7.48C104.361 7.64 104.649 7.784 105.033 7.912C105.433 8.024 105.945 8.152 106.569 8.296C107.113 8.408 107.681 8.552 108.273 8.728C108.865 8.904 109.417 9.144 109.929 9.448C110.441 9.736 110.857 10.12 111.177 10.6C111.497 11.08 111.657 11.688 111.657 12.424C111.657 13.208 111.441 13.896 111.009 14.488C110.577 15.08 109.945 15.536 109.113 15.856C108.281 16.176 107.257 16.336 106.041 16.336Z" fill="#F05537"/>
</svg>
